<mxfile host="Electron" modified="2024-05-24T23:26:34.237Z" agent="Mozilla/5.0 (Windows NT 10.0; Win64; x64) AppleWebKit/537.36 (KHTML, like Gecko) draw.io/22.1.11 Chrome/114.0.5735.289 Electron/25.9.8 Safari/537.36" etag="JdC5Ya50f4Ak2Xm-Vqsa" version="22.1.11" type="device">
  <diagram name="第 1 页" id="tF0JGiltxfxcy0fXxHH1">
    <mxGraphModel dx="780" dy="504" grid="1" gridSize="10" guides="1" tooltips="1" connect="1" arrows="1" fold="1" page="1" pageScale="1" pageWidth="827" pageHeight="1169" math="0" shadow="0">
      <root>
        <mxCell id="0" />
        <mxCell id="1" parent="0" />
        <mxCell id="rbV1nmoBrbP2CvvjNe12-2" value="34" style="rounded=0;whiteSpace=wrap;html=1;fillColor=none;" parent="1" vertex="1">
          <mxGeometry x="120" y="200" width="440" height="40" as="geometry" />
        </mxCell>
        <mxCell id="rbV1nmoBrbP2CvvjNe12-4" value="6" style="rounded=0;whiteSpace=wrap;html=1;fillColor=none;" parent="1" vertex="1">
          <mxGeometry x="120" y="200" width="40" height="40" as="geometry" />
        </mxCell>
        <mxCell id="rbV1nmoBrbP2CvvjNe12-5" value="45" style="rounded=0;whiteSpace=wrap;html=1;fillColor=none;" parent="1" vertex="1">
          <mxGeometry x="160" y="200" width="40" height="40" as="geometry" />
        </mxCell>
        <mxCell id="rbV1nmoBrbP2CvvjNe12-7" value="2" style="rounded=0;whiteSpace=wrap;html=1;fillColor=none;" parent="1" vertex="1">
          <mxGeometry x="200" y="200" width="40" height="40" as="geometry" />
        </mxCell>
        <mxCell id="rbV1nmoBrbP2CvvjNe12-8" value="12" style="rounded=0;whiteSpace=wrap;html=1;fillColor=none;" parent="1" vertex="1">
          <mxGeometry x="240" y="200" width="40" height="40" as="geometry" />
        </mxCell>
        <mxCell id="rbV1nmoBrbP2CvvjNe12-10" value="87" style="rounded=0;whiteSpace=wrap;html=1;fillColor=none;" parent="1" vertex="1">
          <mxGeometry x="280" y="200" width="40" height="40" as="geometry" />
        </mxCell>
        <mxCell id="rbV1nmoBrbP2CvvjNe12-11" value="90" style="rounded=0;whiteSpace=wrap;html=1;fillColor=none;" parent="1" vertex="1">
          <mxGeometry x="360" y="200" width="40" height="40" as="geometry" />
        </mxCell>
        <mxCell id="rbV1nmoBrbP2CvvjNe12-12" value="23" style="rounded=0;whiteSpace=wrap;html=1;fillColor=none;" parent="1" vertex="1">
          <mxGeometry x="440" y="200" width="40" height="40" as="geometry" />
        </mxCell>
        <mxCell id="rbV1nmoBrbP2CvvjNe12-13" value="65" style="rounded=0;whiteSpace=wrap;html=1;fillColor=none;" parent="1" vertex="1">
          <mxGeometry x="520" y="200" width="40" height="40" as="geometry" />
        </mxCell>
        <mxCell id="rbV1nmoBrbP2CvvjNe12-14" value="24" style="rounded=0;whiteSpace=wrap;html=1;fillColor=none;" parent="1" vertex="1">
          <mxGeometry x="400" y="200" width="40" height="40" as="geometry" />
        </mxCell>
        <mxCell id="rbV1nmoBrbP2CvvjNe12-15" value="11" style="rounded=0;whiteSpace=wrap;html=1;fillColor=none;" parent="1" vertex="1">
          <mxGeometry x="480" y="200" width="40" height="40" as="geometry" />
        </mxCell>
        <mxCell id="rbV1nmoBrbP2CvvjNe12-16" value="" style="endArrow=classic;html=1;rounded=0;entryX=0.5;entryY=0;entryDx=0;entryDy=0;" parent="1" target="rbV1nmoBrbP2CvvjNe12-4" edge="1">
          <mxGeometry width="50" height="50" relative="1" as="geometry">
            <mxPoint x="140" y="180" as="sourcePoint" />
            <mxPoint x="430" y="140" as="targetPoint" />
          </mxGeometry>
        </mxCell>
        <mxCell id="rbV1nmoBrbP2CvvjNe12-17" value="&lt;font style=&quot;font-size: 18px;&quot;&gt;i&lt;/font&gt;" style="text;html=1;strokeColor=none;fillColor=none;align=center;verticalAlign=middle;whiteSpace=wrap;rounded=0;" parent="1" vertex="1">
          <mxGeometry x="100" y="170" width="60" height="30" as="geometry" />
        </mxCell>
        <mxCell id="YhiwcZEvXkiC4miEYSbF-21" style="edgeStyle=orthogonalEdgeStyle;rounded=0;orthogonalLoop=1;jettySize=auto;html=1;entryX=0.5;entryY=1;entryDx=0;entryDy=0;" parent="1" target="rbV1nmoBrbP2CvvjNe12-5" edge="1">
          <mxGeometry relative="1" as="geometry">
            <mxPoint x="180" y="260" as="sourcePoint" />
            <mxPoint x="180" y="268" as="targetPoint" />
          </mxGeometry>
        </mxCell>
        <mxCell id="rbV1nmoBrbP2CvvjNe12-20" value="&lt;font style=&quot;font-size: 18px;&quot;&gt;j&lt;/font&gt;" style="text;html=1;strokeColor=none;fillColor=none;align=center;verticalAlign=middle;whiteSpace=wrap;rounded=0;" parent="1" vertex="1">
          <mxGeometry x="160" y="240" width="60" height="30" as="geometry" />
        </mxCell>
        <mxCell id="YhiwcZEvXkiC4miEYSbF-2" value="34" style="rounded=0;whiteSpace=wrap;html=1;fillColor=none;" parent="1" vertex="1">
          <mxGeometry x="120" y="281" width="440" height="40" as="geometry" />
        </mxCell>
        <mxCell id="YhiwcZEvXkiC4miEYSbF-3" value="6" style="rounded=0;whiteSpace=wrap;html=1;fillColor=none;" parent="1" vertex="1">
          <mxGeometry x="120" y="281" width="40" height="40" as="geometry" />
        </mxCell>
        <mxCell id="YhiwcZEvXkiC4miEYSbF-4" value="45" style="rounded=0;whiteSpace=wrap;html=1;fillColor=none;" parent="1" vertex="1">
          <mxGeometry x="160" y="281" width="40" height="40" as="geometry" />
        </mxCell>
        <mxCell id="YhiwcZEvXkiC4miEYSbF-5" value="2" style="rounded=0;whiteSpace=wrap;html=1;fillColor=none;" parent="1" vertex="1">
          <mxGeometry x="200" y="281" width="40" height="40" as="geometry" />
        </mxCell>
        <mxCell id="YhiwcZEvXkiC4miEYSbF-6" value="12" style="rounded=0;whiteSpace=wrap;html=1;fillColor=none;" parent="1" vertex="1">
          <mxGeometry x="240" y="281" width="40" height="40" as="geometry" />
        </mxCell>
        <mxCell id="YhiwcZEvXkiC4miEYSbF-7" value="87" style="rounded=0;whiteSpace=wrap;html=1;fillColor=none;" parent="1" vertex="1">
          <mxGeometry x="280" y="281" width="40" height="40" as="geometry" />
        </mxCell>
        <mxCell id="YhiwcZEvXkiC4miEYSbF-8" value="90" style="rounded=0;whiteSpace=wrap;html=1;fillColor=none;" parent="1" vertex="1">
          <mxGeometry x="360" y="281" width="40" height="40" as="geometry" />
        </mxCell>
        <mxCell id="YhiwcZEvXkiC4miEYSbF-9" value="23" style="rounded=0;whiteSpace=wrap;html=1;fillColor=none;" parent="1" vertex="1">
          <mxGeometry x="440" y="281" width="40" height="40" as="geometry" />
        </mxCell>
        <mxCell id="YhiwcZEvXkiC4miEYSbF-10" value="65" style="rounded=0;whiteSpace=wrap;html=1;fillColor=none;" parent="1" vertex="1">
          <mxGeometry x="520" y="281" width="40" height="40" as="geometry" />
        </mxCell>
        <mxCell id="YhiwcZEvXkiC4miEYSbF-11" value="24" style="rounded=0;whiteSpace=wrap;html=1;fillColor=none;" parent="1" vertex="1">
          <mxGeometry x="400" y="281" width="40" height="40" as="geometry" />
        </mxCell>
        <mxCell id="YhiwcZEvXkiC4miEYSbF-12" value="11" style="rounded=0;whiteSpace=wrap;html=1;fillColor=none;" parent="1" vertex="1">
          <mxGeometry x="480" y="281" width="40" height="40" as="geometry" />
        </mxCell>
        <mxCell id="YhiwcZEvXkiC4miEYSbF-13" value="" style="endArrow=classic;html=1;rounded=0;entryX=0.5;entryY=0;entryDx=0;entryDy=0;" parent="1" target="YhiwcZEvXkiC4miEYSbF-3" edge="1">
          <mxGeometry width="50" height="50" relative="1" as="geometry">
            <mxPoint x="140" y="261" as="sourcePoint" />
            <mxPoint x="430" y="221" as="targetPoint" />
          </mxGeometry>
        </mxCell>
        <mxCell id="YhiwcZEvXkiC4miEYSbF-14" value="&lt;font style=&quot;font-size: 18px;&quot;&gt;i&lt;/font&gt;" style="text;html=1;strokeColor=none;fillColor=none;align=center;verticalAlign=middle;whiteSpace=wrap;rounded=0;" parent="1" vertex="1">
          <mxGeometry x="100" y="260" width="60" height="30" as="geometry" />
        </mxCell>
        <mxCell id="YhiwcZEvXkiC4miEYSbF-15" value="" style="endArrow=classic;html=1;rounded=0;entryX=0.5;entryY=1;entryDx=0;entryDy=0;" parent="1" target="YhiwcZEvXkiC4miEYSbF-5" edge="1">
          <mxGeometry width="50" height="50" relative="1" as="geometry">
            <mxPoint x="220" y="340" as="sourcePoint" />
            <mxPoint x="430" y="221" as="targetPoint" />
          </mxGeometry>
        </mxCell>
        <mxCell id="YhiwcZEvXkiC4miEYSbF-16" value="&lt;font style=&quot;font-size: 18px;&quot;&gt;j&lt;/font&gt;" style="text;html=1;strokeColor=none;fillColor=none;align=center;verticalAlign=middle;whiteSpace=wrap;rounded=0;" parent="1" vertex="1">
          <mxGeometry x="180" y="330" width="60" height="30" as="geometry" />
        </mxCell>
        <mxCell id="YhiwcZEvXkiC4miEYSbF-27" value="" style="curved=1;endArrow=classic;html=1;rounded=0;exitX=0.5;exitY=1;exitDx=0;exitDy=0;entryX=0.5;entryY=1;entryDx=0;entryDy=0;" parent="1" source="YhiwcZEvXkiC4miEYSbF-5" target="YhiwcZEvXkiC4miEYSbF-3" edge="1">
          <mxGeometry width="50" height="50" relative="1" as="geometry">
            <mxPoint x="380" y="280" as="sourcePoint" />
            <mxPoint x="430" y="230" as="targetPoint" />
            <Array as="points">
              <mxPoint x="180" y="350" />
            </Array>
          </mxGeometry>
        </mxCell>
        <mxCell id="YhiwcZEvXkiC4miEYSbF-28" value="34" style="rounded=0;whiteSpace=wrap;html=1;fillColor=none;" parent="1" vertex="1">
          <mxGeometry x="120" y="361" width="440" height="40" as="geometry" />
        </mxCell>
        <mxCell id="YhiwcZEvXkiC4miEYSbF-29" value="2" style="rounded=0;whiteSpace=wrap;html=1;fillColor=none;" parent="1" vertex="1">
          <mxGeometry x="120" y="361" width="40" height="40" as="geometry" />
        </mxCell>
        <mxCell id="YhiwcZEvXkiC4miEYSbF-30" value="45" style="rounded=0;whiteSpace=wrap;html=1;fillColor=none;" parent="1" vertex="1">
          <mxGeometry x="160" y="361" width="40" height="40" as="geometry" />
        </mxCell>
        <mxCell id="YhiwcZEvXkiC4miEYSbF-31" value="6" style="rounded=0;whiteSpace=wrap;html=1;fillColor=none;" parent="1" vertex="1">
          <mxGeometry x="200" y="361" width="40" height="40" as="geometry" />
        </mxCell>
        <mxCell id="YhiwcZEvXkiC4miEYSbF-32" value="12" style="rounded=0;whiteSpace=wrap;html=1;fillColor=none;" parent="1" vertex="1">
          <mxGeometry x="240" y="361" width="40" height="40" as="geometry" />
        </mxCell>
        <mxCell id="YhiwcZEvXkiC4miEYSbF-33" value="87" style="rounded=0;whiteSpace=wrap;html=1;fillColor=none;" parent="1" vertex="1">
          <mxGeometry x="280" y="361" width="40" height="40" as="geometry" />
        </mxCell>
        <mxCell id="YhiwcZEvXkiC4miEYSbF-34" value="90" style="rounded=0;whiteSpace=wrap;html=1;fillColor=none;" parent="1" vertex="1">
          <mxGeometry x="360" y="361" width="40" height="40" as="geometry" />
        </mxCell>
        <mxCell id="YhiwcZEvXkiC4miEYSbF-35" value="23" style="rounded=0;whiteSpace=wrap;html=1;fillColor=none;" parent="1" vertex="1">
          <mxGeometry x="440" y="361" width="40" height="40" as="geometry" />
        </mxCell>
        <mxCell id="YhiwcZEvXkiC4miEYSbF-36" value="65" style="rounded=0;whiteSpace=wrap;html=1;fillColor=none;" parent="1" vertex="1">
          <mxGeometry x="520" y="361" width="40" height="40" as="geometry" />
        </mxCell>
        <mxCell id="YhiwcZEvXkiC4miEYSbF-37" value="24" style="rounded=0;whiteSpace=wrap;html=1;fillColor=none;" parent="1" vertex="1">
          <mxGeometry x="400" y="361" width="40" height="40" as="geometry" />
        </mxCell>
        <mxCell id="YhiwcZEvXkiC4miEYSbF-38" value="11" style="rounded=0;whiteSpace=wrap;html=1;fillColor=none;" parent="1" vertex="1">
          <mxGeometry x="480" y="361" width="40" height="40" as="geometry" />
        </mxCell>
        <mxCell id="YhiwcZEvXkiC4miEYSbF-39" value="" style="endArrow=classic;html=1;rounded=0;entryX=0.5;entryY=0;entryDx=0;entryDy=0;" parent="1" target="YhiwcZEvXkiC4miEYSbF-29" edge="1">
          <mxGeometry width="50" height="50" relative="1" as="geometry">
            <mxPoint x="140" y="341" as="sourcePoint" />
            <mxPoint x="430" y="301" as="targetPoint" />
          </mxGeometry>
        </mxCell>
        <mxCell id="YhiwcZEvXkiC4miEYSbF-40" value="&lt;font style=&quot;font-size: 18px;&quot;&gt;i&lt;/font&gt;" style="text;html=1;strokeColor=none;fillColor=none;align=center;verticalAlign=middle;whiteSpace=wrap;rounded=0;" parent="1" vertex="1">
          <mxGeometry x="100" y="340" width="60" height="30" as="geometry" />
        </mxCell>
        <mxCell id="YhiwcZEvXkiC4miEYSbF-41" value="" style="endArrow=classic;html=1;rounded=0;entryX=0.5;entryY=1;entryDx=0;entryDy=0;" parent="1" target="YhiwcZEvXkiC4miEYSbF-36" edge="1">
          <mxGeometry width="50" height="50" relative="1" as="geometry">
            <mxPoint x="540" y="420" as="sourcePoint" />
            <mxPoint x="430" y="301" as="targetPoint" />
          </mxGeometry>
        </mxCell>
        <mxCell id="YhiwcZEvXkiC4miEYSbF-42" value="&lt;font style=&quot;font-size: 18px;&quot;&gt;j&lt;/font&gt;" style="text;html=1;strokeColor=none;fillColor=none;align=center;verticalAlign=middle;whiteSpace=wrap;rounded=0;" parent="1" vertex="1">
          <mxGeometry x="500" y="401" width="60" height="30" as="geometry" />
        </mxCell>
        <mxCell id="9FeuYJa9x7Wceopz0XuN-4" value="" style="curved=1;endArrow=classic;html=1;rounded=0;exitX=0.5;exitY=1;exitDx=0;exitDy=0;entryX=0.5;entryY=1;entryDx=0;entryDy=0;" edge="1" parent="1" source="YhiwcZEvXkiC4miEYSbF-3" target="YhiwcZEvXkiC4miEYSbF-5">
          <mxGeometry width="50" height="50" relative="1" as="geometry">
            <mxPoint x="230" y="331" as="sourcePoint" />
            <mxPoint x="150" y="331" as="targetPoint" />
            <Array as="points">
              <mxPoint x="180" y="350" />
            </Array>
          </mxGeometry>
        </mxCell>
      </root>
    </mxGraphModel>
  </diagram>
</mxfile>
